<?xml version="1.0" standalone="no"?>
<!DOCTYPE svg PUBLIC "-//W3C//DTD SVG 20010904//EN"
 "http://www.w3.org/TR/2001/REC-SVG-20010904/DTD/svg10.dtd">
<svg version="1.0" xmlns="http://www.w3.org/2000/svg"
 width="200.000000pt" height="55.000000pt" viewBox="0 0 200.000000 55.000000"
 preserveAspectRatio="xMidYMid meet">

<g transform="translate(0.000000,55.000000) scale(0.100000,-0.100000)"
fill="#000000" stroke="none">
<path d="M670 491 c0 -11 -8 -26 -19 -33 -24 -17 -76 -105 -83 -139 -3 -19 1
-30 15 -38 16 -11 23 -8 47 19 16 18 26 38 24 45 -3 8 2 12 13 12 11 -1 18 4
17 16 -1 9 3 17 8 17 5 0 8 8 6 18 -1 10 5 30 14 45 17 25 17 26 -4 42 -30 20
-38 19 -38 -4z m24 -44 c-7 -19 -20 -22 -29 -7 -9 15 16 43 27 32 5 -5 6 -16
2 -25z m-10 -36 c-3 -3 -10 -7 -15 -7 -5 -1 -13 -2 -18 -3 -15 -2 -21 -31 -11
-51 14 -26 -11 -45 -39 -30 -20 10 -20 12 -5 43 37 71 43 77 70 65 13 -6 21
-14 18 -17z"/>
<path d="M700 372 c0 -10 -6 -24 -12 -32 -11 -12 -10 -12 5 -1 15 12 20 11 37
-4 28 -25 25 -60 -6 -84 -18 -14 -22 -21 -11 -21 17 0 27 -20 27 -56 0 -21 -4
-24 -39 -24 -35 0 -39 3 -45 32 -5 25 -2 36 11 45 9 7 12 13 7 13 -6 0 -13 -3
-17 -6 -3 -4 -39 -7 -78 -8 -48 -1 -74 -5 -76 -13 -4 -10 12 -13 54 -13 61 0
102 -18 89 -38 -5 -8 -39 -12 -92 -12 -77 0 -84 -2 -84 -20 0 -19 7 -20 150
-20 83 0 153 -1 157 -2 4 -2 9 5 11 15 3 12 -4 20 -17 24 -27 7 -27 43 0 100
18 37 19 48 9 78 -17 52 -80 89 -80 47z"/>
<path d="M104 343 c-44 -104 -83 -216 -78 -224 12 -19 35 -7 51 26 16 33 19
35 68 35 49 0 52 -2 68 -35 29 -61 70 -39 44 23 -9 21 -32 76 -53 125 -31 75
-40 87 -60 87 -18 0 -28 -9 -40 -37z m75 -115 c1 -14 -7 -18 -35 -18 -34 0
-36 2 -31 28 3 15 11 41 17 57 l12 30 18 -40 c10 -22 19 -48 19 -57z"/>
<path d="M937 374 c-4 -4 -7 -51 -7 -104 0 -102 -7 -120 -47 -120 -26 0 -31
16 -35 100 -2 41 -7 55 -18 55 -23 0 -27 -156 -5 -179 19 -18 57 -21 86 -6 13
7 19 7 19 0 0 -16 38 -12 48 6 8 14 10 14 21 0 21 -25 85 -20 118 8 24 21 28
32 28 74 0 35 -6 56 -19 71 -26 28 -78 37 -115 18 l-30 -15 -3 46 c-2 33 -8
48 -18 50 -9 1 -19 0 -23 -4z m143 -123 c14 -26 13 -74 -2 -89 -7 -7 -26 -12
-43 -12 -24 0 -35 6 -43 25 -16 34 -15 46 4 73 20 28 69 30 84 3z"/>
<path d="M1285 355 c-50 -49 -21 -102 70 -127 46 -12 50 -16 50 -43 0 -27 -4
-30 -35 -33 -29 -3 -39 2 -61 29 -15 19 -31 29 -37 25 -20 -12 -13 -45 13 -71
19 -20 34 -25 75 -25 44 0 56 5 81 29 52 52 28 110 -54 131 -57 14 -72 24 -72
46 0 14 9 20 35 22 28 3 39 -2 57 -24 18 -23 24 -26 37 -15 22 18 20 28 -9 56
-19 20 -34 25 -75 25 -41 0 -56 -5 -75 -25z"/>
<path d="M1500 361 c0 -22 54 -180 76 -223 10 -19 22 -28 38 -28 21 0 28 12
61 98 20 53 41 110 47 125 8 20 8 31 0 39 -22 22 -41 -3 -72 -97 -18 -53 -35
-93 -38 -90 -4 3 -20 48 -37 98 -26 75 -35 93 -53 95 -16 3 -22 -2 -22 -17z"/>
<path d="M1752 368 c-18 -18 5 -38 44 -38 l33 0 3 -107 c3 -103 4 -108 26
-111 22 -3 22 -2 22 107 l0 111 33 0 c41 0 62 13 54 34 -5 13 -24 16 -105 16
-62 0 -102 -4 -110 -12z"/>
<path d="M507 301 c5 -21 30 -47 38 -40 2 3 -1 15 -8 29 -15 30 -37 38 -30 11z"/>
<path d="M294 296 c-3 -8 10 -54 30 -101 39 -96 36 -121 -14 -127 -40 -5 -29
-23 17 -26 40 -3 43 -1 61 35 45 92 85 214 74 225 -18 18 -36 -5 -56 -72 -10
-33 -21 -60 -25 -60 -4 0 -15 26 -25 58 -25 78 -48 104 -62 68z"/>
<path d="M674 209 c-8 -14 11 -33 25 -25 6 4 11 14 11 22 0 16 -26 19 -36 3z"/>
</g>
</svg>
